<?xml version="1.0" encoding="UTF-8" standalone="no"?>
<!DOCTYPE svg PUBLIC "-//W3C//DTD SVG 1.1//EN" "http://www.w3.org/Graphics/SVG/1.1/DTD/svg11.dtd">
<svg width="100%" height="100%" viewBox="0 0 922 101" version="1.1" xmlns="http://www.w3.org/2000/svg" xmlns:xlink="http://www.w3.org/1999/xlink" xml:space="preserve" style="fill-rule:evenodd;clip-rule:evenodd;stroke-linejoin:round;stroke-miterlimit:1.41421;">
    <rect id="Artboard1" x="-169" y="-308" width="1280" height="800" style="fill:none;"/>
    <g id="header.-big">
        <g transform="matrix(1,0,0,1,0.452,92.038)">
            <path d="M16.411,-0.363C21.538,0.929 25.878,1.575 29.431,1.575C35.648,1.575 40.978,0.646 45.419,-1.211C49.859,-3.068 53.251,-5.672 55.592,-9.023C57.934,-12.374 59.105,-16.23 59.105,-20.59C59.105,-26.242 57.389,-30.844 53.957,-34.397C50.526,-37.95 45.136,-41.381 37.788,-44.692C32.298,-47.195 28.139,-49.254 25.313,-50.869C22.487,-52.484 20.307,-54.28 18.773,-56.258C17.239,-58.237 16.472,-60.558 16.472,-63.223C16.472,-66.695 17.966,-69.359 20.953,-71.216C23.941,-73.073 27.857,-74.002 32.701,-74.002C36.173,-74.002 39.181,-73.618 41.724,-72.851C44.268,-72.084 46.953,-71.014 49.779,-69.642L53.654,-78.847C50.586,-80.381 47.134,-81.673 43.299,-82.722C39.464,-83.772 35.648,-84.297 31.854,-84.297C26.363,-84.297 21.579,-83.368 17.501,-81.511C13.424,-79.654 10.295,-77.111 8.115,-73.881C5.935,-70.651 4.845,-67.018 4.845,-62.98C4.845,-58.943 5.612,-55.491 7.146,-52.625C8.68,-49.758 10.961,-47.255 13.989,-45.116C17.017,-42.976 21.074,-40.776 26.161,-38.515C31.329,-36.254 35.366,-34.296 38.273,-32.641C41.179,-30.986 43.42,-29.169 44.995,-27.191C46.569,-25.212 47.356,-22.931 47.356,-20.347C47.356,-16.714 45.782,-13.827 42.633,-11.688C39.484,-9.548 35.043,-8.478 29.31,-8.478C25.919,-8.478 22.326,-9.003 18.531,-10.053C14.736,-11.102 11.546,-12.313 8.963,-13.686L6.298,-4.481C7.913,-3.028 11.284,-1.655 16.411,-0.363Z" style="fill-rule:nonzero;"/>
            <path d="M75.334,0L83.57,-22.043L117.119,-22.043L125.718,0.969L137.224,-0.727L105.492,-82.359L94.955,-82.359L63.949,0L75.334,0ZM100.042,-66.735L113.607,-31.369L86.84,-31.369L100.042,-66.735Z" style="fill-rule:nonzero;"/>
            <path d="M160.963,-82.359L149.336,-82.359L149.336,0L199.599,0L198.146,-9.084L160.963,-9.084L160.963,-82.359Z" style="fill-rule:nonzero;"/>
            <path d="M224.791,-78.362C218.816,-74.567 214.133,-69.399 210.742,-62.859C207.351,-56.319 205.655,-48.971 205.655,-40.816C205.655,-32.661 207.33,-25.354 210.681,-18.894C214.032,-12.435 218.675,-7.388 224.61,-3.755C230.544,-0.121 237.226,1.696 244.654,1.696C252.244,1.615 259.047,-0.323 265.062,-4.118C271.078,-7.913 275.781,-13.081 279.172,-19.621C282.564,-26.161 284.259,-33.509 284.259,-41.664C284.259,-49.819 282.584,-57.126 279.233,-63.586C275.882,-70.045 271.219,-75.112 265.244,-78.786C259.269,-82.46 252.527,-84.297 245.018,-84.297C237.508,-84.135 230.766,-82.157 224.791,-78.362ZM221.279,-58.075C223.621,-63.122 226.891,-67.078 231.089,-69.944C235.288,-72.811 240.012,-74.244 245.26,-74.244C250.347,-74.244 254.909,-72.851 258.946,-70.066C262.983,-67.28 266.152,-63.404 268.454,-58.438C270.755,-53.473 271.905,-47.881 271.905,-41.664C271.905,-35.285 270.735,-29.552 268.393,-24.465C266.051,-19.379 262.802,-15.402 258.643,-12.536C254.485,-9.669 249.782,-8.236 244.533,-8.236C239.446,-8.236 234.864,-9.629 230.787,-12.414C226.709,-15.2 223.52,-19.096 221.218,-24.102C218.917,-29.108 217.767,-34.72 217.767,-40.937C217.767,-47.316 218.937,-53.029 221.279,-58.075Z" style="fill-rule:nonzero;"/>
            <path d="M354.385,0L364.801,0L364.801,-82.359L353.053,-82.359L353.053,-21.438L310.299,-82.359L300.004,-82.359L300.004,0L311.631,0L311.631,-61.406L354.385,0Z" style="fill-rule:nonzero;"/>
        </g>
        <g transform="matrix(1,0,0,1,531.425,92.038)">
            <path d="M70.005,0L81.753,0L81.753,-82.359L74.486,-82.359L46.993,-41.664L18.046,-82.359L10.9,-82.359L10.9,0L22.528,0L22.528,-58.257L45.297,-26.403L49.536,-27.009L70.005,-57.167L70.005,0Z" style="fill-rule:nonzero;"/>
            <path d="M105.25,0L113.486,-22.043L147.035,-22.043L155.634,0.969L167.14,-0.727L135.408,-82.359L124.871,-82.359L93.865,0L105.25,0ZM129.957,-66.735L143.522,-31.369L116.756,-31.369L129.957,-66.735Z" style="fill-rule:nonzero;"/>
            <path d="M190.879,0L190.879,-32.944L201.658,-32.944C205.372,-32.944 207.916,-33.065 209.288,-33.307L227.698,0L240.294,0L219.583,-36.335C223.943,-38.192 227.415,-40.957 229.999,-44.631C232.583,-48.305 233.915,-52.726 233.996,-57.893C233.996,-66.129 231.13,-72.266 225.397,-76.303C219.664,-80.34 212.155,-82.359 202.869,-82.359L179.252,-82.359L179.252,0L190.879,0ZM216.979,-69.097C220.249,-66.795 221.885,-62.9 221.885,-57.409C221.804,-52.161 219.967,-48.345 216.374,-45.964C212.781,-43.582 208.037,-42.391 202.143,-42.391L190.879,-42.391L190.879,-72.548L202.748,-72.548C208.965,-72.548 213.709,-71.398 216.979,-69.097Z" style="fill-rule:nonzero;"/>
            <path d="M264.033,-28.462L264.033,0L252.406,0L252.406,-82.359L264.033,-82.359L264.033,-44.207L301.579,-84.176L309.815,-77.393L280.626,-46.266L315.992,0L301.821,0L272.874,-37.909L264.033,-28.462Z" style="fill-rule:nonzero;"/>
            <path d="M318.414,-73.154L345.181,-73.154L345.181,0L356.929,0L356.929,-73.154L385.27,-73.154L383.695,-82.359L318.414,-82.359L318.414,-73.154Z" style="fill-rule:nonzero;"/>
        </g>
        <g transform="matrix(1,0,0,1,406.429,92.038)">
            <path d="M7.281,0L12.041,-12.741L31.434,-12.741L36.404,0.56L43.055,-0.42L24.713,-47.605L18.622,-47.605L0.7,0L7.281,0ZM21.562,-38.574L29.403,-18.132L13.932,-18.132L21.562,-38.574Z" style="fill-rule:nonzero;"/>
            <path d="M84.22,0L91.01,0L91.01,-47.605L86.81,-47.605L70.918,-24.083L54.186,-47.605L50.056,-47.605L50.056,0L56.776,0L56.776,-33.674L69.938,-15.262L72.388,-15.612L84.22,-33.044L84.22,0Z" style="fill-rule:nonzero;"/>
        </g>
    </g>
</svg>
