<svg>
    <defs>

        <g id="icon-instagram" transform="matrix(2.43399,0,0,1.18252,-204.806,-87.2706)">
            <path d="M328.02,183.193C401.848,183.193 461.787,243.132 461.787,316.961C461.787,390.789 401.848,450.728 328.02,450.728C254.191,450.728 194.252,390.789 194.252,316.961C194.252,243.132 254.191,183.193 328.02,183.193ZM328.02,223.091C379.828,223.091 421.889,265.153 421.889,316.961C421.889,368.769 379.828,410.83 328.02,410.83C276.212,410.83 234.15,368.769 234.15,316.961C234.15,265.153 276.212,223.091 328.02,223.091Z" style="fill:rgb(53,53,53);"/>
            <g transform="matrix(1,0,0,1,9,-9)">
                <circle cx="461.787" cy="183.193" r="30.35" style="fill:rgb(53,53,53);stroke:rgb(53,53,53);stroke-width:1px;"/>
            </g>
            <g transform="matrix(0.904867,0,0,0.904867,31.2056,30.1535)">
                <path d="M580.02,198.635C580.02,124.858 520.122,64.961 446.345,64.961L209.694,64.961C135.917,64.961 76.02,124.858 76.02,198.635L76.02,435.286C76.02,509.063 135.917,568.961 209.694,568.961L446.345,568.961C520.122,568.961 580.02,509.063 580.02,435.286L580.02,198.635Z" style="fill:none;stroke:rgb(53,53,53);stroke-width:34.26px;"/>
            </g>
        </g>
    </defs>
</svg>