<?xml version="1.0" encoding="UTF-8" standalone="no"?><!DOCTYPE svg PUBLIC "-//W3C//DTD SVG 1.1//EN" "http://www.w3.org/Graphics/SVG/1.1/DTD/svg11.dtd"><svg width="100%" height="100%" viewBox="0 0 20 20" version="1.1" xmlns="http://www.w3.org/2000/svg" xmlns:xlink="http://www.w3.org/1999/xlink" xml:space="preserve" style="fill-rule:evenodd;clip-rule:evenodd;stroke-linejoin:round;stroke-miterlimit:1.41421;"><g id="icon-monochrome"><path d="M10.014,5.33c1.525,0 1.706,0.006 2.309,0.033c0.556,0.026 0.859,0.119 1.06,0.197c0.267,0.104 0.457,0.228 0.657,0.427c0.2,0.2 0.324,0.391 0.428,0.657c0.078,0.202 0.171,0.504 0.196,1.061c0.028,0.603 0.034,0.783 0.034,2.309c0,1.525 -0.006,1.706 -0.034,2.309c-0.025,0.557 -0.118,0.859 -0.196,1.06c-0.104,0.267 -0.228,0.457 -0.428,0.657c-0.2,0.2 -0.39,0.324 -0.657,0.428c-0.201,0.078 -0.504,0.171 -1.061,0.196c-0.602,0.028 -0.783,0.034 -2.308,0.034c-1.526,0 -1.706,-0.006 -2.309,-0.034c-0.557,-0.025 -0.859,-0.118 -1.061,-0.196c-0.266,-0.104 -0.457,-0.228 -0.657,-0.428c-0.199,-0.2 -0.323,-0.39 -0.427,-0.657c-0.078,-0.201 -0.171,-0.504 -0.197,-1.061c-0.027,-0.602 -0.033,-0.783 -0.033,-2.308c0,-1.526 0.006,-1.706 0.033,-2.309c0.026,-0.557 0.119,-0.859 0.197,-1.061c0.104,-0.266 0.228,-0.457 0.427,-0.657c0.2,-0.199 0.391,-0.323 0.657,-0.427c0.202,-0.078 0.504,-0.171 1.061,-0.197c0.603,-0.027 0.783,-0.033 2.309,-0.033m0,-1.029c-1.552,0 -1.746,0.006 -2.356,0.034c-0.608,0.028 -1.023,0.124 -1.387,0.266c-0.375,0.146 -0.694,0.341 -1.011,0.659c-0.318,0.317 -0.513,0.636 -0.659,1.012c-0.142,0.363 -0.238,0.778 -0.266,1.386c-0.028,0.61 -0.034,0.804 -0.034,2.356c0,1.552 0.006,1.746 0.034,2.356c0.028,0.608 0.124,1.023 0.266,1.386c0.146,0.376 0.341,0.695 0.659,1.012c0.317,0.318 0.636,0.513 1.011,0.659c0.364,0.142 0.779,0.238 1.387,0.266c0.61,0.028 0.804,0.034 2.356,0.034c1.551,0 1.746,-0.006 2.355,-0.034c0.609,-0.028 1.024,-0.124 1.387,-0.266c0.376,-0.146 0.695,-0.341 1.012,-0.659c0.318,-0.317 0.513,-0.636 0.659,-1.012c0.141,-0.363 0.238,-0.778 0.266,-1.386c0.028,-0.61 0.034,-0.804 0.034,-2.356c0,-1.552 -0.006,-1.746 -0.034,-2.356c-0.028,-0.608 -0.125,-1.023 -0.266,-1.386c-0.146,-0.376 -0.341,-0.695 -0.659,-1.012c-0.317,-0.318 -0.636,-0.513 -1.012,-0.659c-0.363,-0.142 -0.778,-0.238 -1.387,-0.266c-0.609,-0.028 -0.804,-0.034 -2.355,-0.034m0,2.779c-1.62,0 -2.934,1.314 -2.934,2.934c0,1.62 1.314,2.934 2.934,2.934c1.62,0 2.934,-1.314 2.934,-2.934c0,-1.62 -1.314,-2.934 -2.934,-2.934m0,4.838c-1.052,0 -1.905,-0.852 -1.905,-1.904c0,-1.052 0.853,-1.905 1.905,-1.905c1.052,0 1.904,0.853 1.904,1.905c0,1.052 -0.852,1.904 -1.904,1.904m3.735,-4.954c0,-0.379 -0.307,-0.685 -0.685,-0.685c-0.379,0 -0.686,0.306 -0.686,0.685c0,0.379 0.307,0.686 0.686,0.686c0.378,0 0.685,-0.307 0.685,-0.686" style="fill-rule:nonzero;"/></g></svg>