<?xml version="1.0" encoding="UTF-8" standalone="no"?><!DOCTYPE svg PUBLIC "-//W3C//DTD SVG 1.1//EN" "http://www.w3.org/Graphics/SVG/1.1/DTD/svg11.dtd"><svg width="100%" height="100%" viewBox="0 0 922 101" version="1.1" xmlns="http://www.w3.org/2000/svg" xmlns:xlink="http://www.w3.org/1999/xlink" xml:space="preserve" style="fill-rule:evenodd;clip-rule:evenodd;stroke-linejoin:round;stroke-miterlimit:1.41421;"><rect id="Artboard1" x="-169" y="-308" width="1280" height="800" style="fill:none;"/><g id="header.-big"><path d="M16.863,91.675c5.127,1.292 9.467,1.938 13.02,1.938c6.217,0 11.547,-0.929 15.988,-2.786c4.44,-1.857 7.832,-4.461 10.173,-7.812c2.342,-3.351 3.513,-7.207 3.513,-11.567c0,-5.652 -1.716,-10.254 -5.148,-13.807c-3.431,-3.553 -8.821,-6.984 -16.169,-10.295c-5.49,-2.503 -9.649,-4.562 -12.475,-6.177c-2.826,-1.615 -5.006,-3.411 -6.54,-5.389c-1.534,-1.979 -2.301,-4.3 -2.301,-6.965c0,-3.472 1.494,-6.136 4.481,-7.993c2.988,-1.857 6.904,-2.786 11.748,-2.786c3.472,0 6.48,0.384 9.023,1.151c2.544,0.767 5.229,1.837 8.055,3.209l3.875,-9.205c-3.068,-1.534 -6.52,-2.826 -10.355,-3.875c-3.835,-1.05 -7.651,-1.575 -11.445,-1.575c-5.491,0 -10.275,0.929 -14.353,2.786c-4.077,1.857 -7.206,4.4 -9.386,7.63c-2.18,3.23 -3.27,6.863 -3.27,10.901c0,4.037 0.767,7.489 2.301,10.355c1.534,2.867 3.815,5.37 6.843,7.509c3.028,2.14 7.085,4.34 12.172,6.601c5.168,2.261 9.205,4.219 12.112,5.874c2.906,1.655 5.147,3.472 6.722,5.45c1.574,1.979 2.361,4.26 2.361,6.844c0,3.633 -1.574,6.52 -4.723,8.659c-3.149,2.14 -7.59,3.21 -13.323,3.21c-3.391,0 -6.984,-0.525 -10.779,-1.575c-3.795,-1.049 -6.985,-2.26 -9.568,-3.633l-2.665,9.205c1.615,1.453 4.986,2.826 10.113,4.118Z" style="fill-rule:nonzero;"/><path d="M75.786,92.038l8.236,-22.043l33.549,0l8.599,23.012l11.506,-1.696l-31.732,-81.632l-10.537,0l-31.006,82.359l11.385,0Zm24.708,-66.735l13.565,35.366l-26.767,0l13.202,-35.366Z" style="fill-rule:nonzero;"/><path d="M161.415,9.679l-11.627,0l0,82.359l50.263,0l-1.453,-9.084l-37.183,0l0,-73.275Z" style="fill-rule:nonzero;"/><path d="M225.243,13.676c-5.975,3.795 -10.658,8.963 -14.049,15.503c-3.391,6.54 -5.087,13.888 -5.087,22.043c0,8.155 1.675,15.462 5.026,21.922c3.351,6.459 7.994,11.506 13.929,15.139c5.934,3.634 12.616,5.451 20.044,5.451c7.59,-0.081 14.393,-2.019 20.408,-5.814c6.016,-3.795 10.719,-8.963 14.11,-15.503c3.392,-6.54 5.087,-13.888 5.087,-22.043c0,-8.155 -1.675,-15.462 -5.026,-21.922c-3.351,-6.459 -8.014,-11.526 -13.989,-15.2c-5.975,-3.674 -12.717,-5.511 -20.226,-5.511c-7.51,0.162 -14.252,2.14 -20.227,5.935Zm-3.512,20.287c2.342,-5.047 5.612,-9.003 9.81,-11.869c4.199,-2.867 8.923,-4.3 14.171,-4.3c5.087,0 9.649,1.393 13.686,4.178c4.037,2.786 7.206,6.662 9.508,11.628c2.301,4.965 3.451,10.557 3.451,16.774c0,6.379 -1.17,12.112 -3.512,17.199c-2.342,5.086 -5.591,9.063 -9.75,11.929c-4.158,2.867 -8.861,4.3 -14.11,4.3c-5.087,0 -9.669,-1.393 -13.746,-4.178c-4.078,-2.786 -7.267,-6.682 -9.569,-11.688c-2.301,-5.006 -3.451,-10.618 -3.451,-16.835c0,-6.379 1.17,-12.092 3.512,-17.138Z" style="fill-rule:nonzero;"/><path d="M354.837,92.038l10.416,0l0,-82.359l-11.748,0l0,60.921l-42.754,-60.921l-10.295,0l0,82.359l11.627,0l0,-61.406l42.754,61.406Z" style="fill-rule:nonzero;"/><path d="M601.43,92.038l11.748,0l0,-82.359l-7.267,0l-27.493,40.695l-28.947,-40.695l-7.146,0l0,82.359l11.628,0l0,-58.257l22.769,31.854l4.239,-0.606l20.469,-30.158l0,57.167Z" style="fill-rule:nonzero;"/><path d="M636.675,92.038l8.236,-22.043l33.549,0l8.599,23.012l11.506,-1.696l-31.732,-81.632l-10.537,0l-31.006,82.359l11.385,0Zm24.707,-66.735l13.565,35.366l-26.766,0l13.201,-35.366Z" style="fill-rule:nonzero;"/><path d="M722.304,92.038l0,-32.944l10.779,0c3.714,0 6.258,-0.121 7.63,-0.363l18.41,33.307l12.596,0l-20.711,-36.335c4.36,-1.857 7.832,-4.622 10.416,-8.296c2.584,-3.674 3.916,-8.095 3.997,-13.262c0,-8.236 -2.866,-14.373 -8.599,-18.41c-5.733,-4.037 -13.242,-6.056 -22.528,-6.056l-23.617,0l0,82.359l11.627,0Zm26.1,-69.097c3.27,2.302 4.906,6.197 4.906,11.688c-0.081,5.248 -1.918,9.064 -5.511,11.445c-3.593,2.382 -8.337,3.573 -14.231,3.573l-11.264,0l0,-30.157l11.869,0c6.217,0 10.961,1.15 14.231,3.451Z" style="fill-rule:nonzero;"/><path d="M795.458,63.576l0,28.462l-11.627,0l0,-82.359l11.627,0l0,38.152l37.546,-39.969l8.236,6.783l-29.189,31.127l35.366,46.266l-14.171,0l-28.947,-37.909l-8.841,9.447Z" style="fill-rule:nonzero;"/><path d="M849.839,18.884l26.767,0l0,73.154l11.748,0l0,-73.154l28.341,0l-1.575,-9.205l-65.281,0l0,9.205Z" style="fill-rule:nonzero;"/><path d="M413.71,92.038l4.76,-12.741l19.393,0l4.97,13.301l6.651,-0.98l-18.342,-47.185l-6.091,0l-17.922,47.605l6.581,0Zm14.281,-38.574l7.841,20.442l-15.471,0l7.63,-20.442Z" style="fill-rule:nonzero;"/><path d="M490.649,92.038l6.79,0l0,-47.605l-4.2,0l-15.892,23.522l-16.732,-23.522l-4.13,0l0,47.605l6.72,0l0,-33.674l13.162,18.412l2.45,-0.35l11.832,-17.432l0,33.044Z" style="fill-rule:nonzero;"/></g></svg>